<?xml version="1.0" encoding="utf-8"?>
<!-- Generator: Adobe Illustrator 27.5.0, SVG Export Plug-In . SVG Version: 6.00 Build 0)  -->
<svg version="1.1" xmlns="http://www.w3.org/2000/svg" xmlns:xlink="http://www.w3.org/1999/xlink" x="0px" y="0px"
	 viewBox="0 0 750 500" style="enable-background:new 0 0 750 500;" xml:space="preserve">
<g id="BACKGROUND">
	<g>
		<rect style="fill:#FFF8F1;" width="750" height="500"/>
	</g>
	<g>
		<defs>
			<rect id="SVGID_1_" width="750" height="500"/>
		</defs>
		<clipPath id="SVGID_00000152980683070698174290000003599856221081644475_">
			<use xlink:href="#SVGID_1_"  style="overflow:visible;"/>
		</clipPath>
		<g style="opacity:0.3;clip-path:url(#SVGID_00000152980683070698174290000003599856221081644475_);">
			<g>
				<path style="fill:#FFD3A3;" d="M-202.245,127.366c-0.5,0-0.997-0.001-1.498-0.002c-44.103-0.12-90.341-5.57-127.494-9.949
					l0.234-1.986c37.102,4.373,83.277,9.815,127.266,9.935c0.497,0.001,0.997,0.002,1.492,0.002
					c46.93,0,86.975-6.063,122.387-18.527c6.798-2.393,13.666-5.107,20.307-7.733c18.807-7.435,38.255-15.122,58.706-16.56
					c27.287-1.917,53.735,7.367,79.312,16.346c10.213,3.585,20.773,7.293,31.226,10.228c25.426,7.14,53.75,10.688,86.59,10.846
					c29.323,0.142,59.499-2.373,88.679-4.805c24.915-2.076,50.678-4.223,75.872-4.718c38.148-0.751,76.843,2.301,114.264,5.253
					c39.672,3.129,80.695,6.364,121.076,5.062c22.024-0.71,44.354-2.788,65.948-4.797c19.45-1.809,39.563-3.681,59.416-4.551
					c45.525-1.995,92.054,1.146,137.051,4.184c36.014,2.432,73.257,4.95,109.575,4.783c40.682-0.183,75.965-3.782,107.862-11.004
					l0.442,1.951c-32.042,7.254-67.465,10.87-108.295,11.053c-36.384,0.169-73.669-2.354-109.718-4.788
					c-44.942-3.034-91.416-6.172-136.829-4.182c-19.805,0.868-39.892,2.737-59.318,4.544c-21.624,2.012-43.984,4.092-66.069,4.804
					c-40.493,1.306-81.571-1.934-121.297-5.067c-37.372-2.948-76.017-5.996-114.067-5.247c-25.13,0.494-50.861,2.638-75.745,4.712
					c-29.223,2.435-59.447,4.957-88.855,4.811c-33.023-0.159-61.52-3.731-87.121-10.92c-10.515-2.953-21.106-6.671-31.348-10.267
					C52.419,91.866,26.17,82.651-0.705,84.54c-20.143,1.416-39.445,9.046-58.111,16.425c-6.659,2.632-13.545,5.354-20.379,7.76
					C-114.821,121.264-155.089,127.366-202.245,127.366z"/>
			</g>
			<g>
				<path style="fill:#FFD3A3;" d="M946.143,170.452c-12.174,0-25.051-0.367-38.839-1.095c-18.115-0.957-36.54-2.412-54.359-3.82
					c-47.364-3.742-96.341-7.613-144.217-2.467c-6.654,0.715-13.423,1.618-19.969,2.492c-18.117,2.418-36.85,4.919-55.398,3.74
					c-13.06-0.83-26.078-3.492-38.667-6.067c-10.503-2.148-21.363-4.369-32.162-5.505c-28.743-3.023-58.029,1.488-86.35,5.852
					c-21.989,3.388-44.578,6.868-67.096,6.868c-5.764,0-11.52-0.228-17.263-0.743c-14.862-1.334-29.68-4.61-44.01-7.778
					c-16.033-3.545-32.612-7.21-49.213-8.131c-24.533-1.361-49.507,3.221-73.66,7.65c-31.094,5.703-63.248,11.6-94.456,4.712
					c-18.111-3.997-35.254-12.214-51.832-20.16c-20.327-9.742-41.346-19.816-63.912-21.849c-25.755-2.32-51.175,5.98-75.757,14.006
					c-7.914,2.584-16.099,5.257-24.171,7.534c-35.047,9.887-74.231,13.979-119.795,12.511c-41.768-1.346-84.03-7.096-121.318-12.17
					l0.27-1.982c37.24,5.067,79.448,10.81,121.112,12.153c45.356,1.462,84.341-2.607,119.187-12.437
					c8.033-2.266,16.197-4.932,24.093-7.51c24.774-8.089,50.392-16.453,76.557-14.097c22.925,2.065,44.11,12.218,64.597,22.037
					c16.476,7.897,33.514,16.063,51.399,20.01c13.815,3.049,29.028,3.822,46.508,2.361c15.639-1.307,31.662-4.245,47.157-7.088
					c24.268-4.451,49.361-9.054,74.131-7.68c16.763,0.929,33.423,4.613,49.534,8.174c14.268,3.155,29.023,6.417,43.757,7.739
					c27.942,2.508,56.377-1.873,83.876-6.109c28.447-4.383,57.862-8.915,86.864-5.864c10.896,1.146,21.805,3.377,32.354,5.535
					c12.523,2.561,25.471,5.21,38.393,6.031c18.35,1.165,36.985-1.321,55.006-3.727c6.559-0.876,13.341-1.781,20.02-2.499
					c48.062-5.165,97.133-1.288,144.589,2.462c17.806,1.407,36.218,2.862,54.306,3.817c39.016,2.06,70.717,1.22,99.765-2.646
					c36.035-4.795,66.707-14.18,93.77-28.691l0.945,1.763c-27.279,14.626-58.174,24.083-94.451,28.911
					C988.542,169.212,968.532,170.452,946.143,170.452z"/>
			</g>
			<g>
				<path style="fill:#FFD3A3;" d="M8.382,186.738c-0.506,0-1.01-0.003-1.515-0.007c-3.653-0.035-7.521-0.21-11.056-1.244l0,0
					c-6.745-1.973-8.103-6.185-8.312-8.52c-0.439-4.901,3.139-10.265,8.701-13.044c8.652-4.322,22.385-2.092,32.412-0.464
					c0.976,0.159,1.913,0.311,2.8,0.449c5.251,0.82,10.398,2.049,12.485,5.466c1.512,2.475,0.996,5.716-1.378,8.67
					c-1.903,2.367-4.612,4.305-7.834,5.606c-3.882,1.567-8.255,2.119-12.403,2.482C17.687,186.535,13.017,186.738,8.382,186.738z
					 M-3.627,183.568c3.301,0.966,7.004,1.13,10.513,1.163c5.067,0.049,10.189-0.15,15.222-0.591
					c3.993-0.35,8.189-0.876,11.828-2.344c2.906-1.173,5.335-2.903,7.024-5.004c2.628-3.268,1.736-5.546,1.23-6.374
					c-1.662-2.722-6.311-3.787-11.086-4.533c-0.891-0.139-1.832-0.292-2.812-0.451c-9.759-1.585-23.123-3.755-31.198,0.279
					c-4.767,2.382-7.965,7.04-7.603,11.076C-10.226,179.945-7.782,182.352-3.627,183.568L-3.627,183.568z"/>
			</g>
			<g>
				<path style="fill:#FFD3A3;" d="M15.555,245.175c-12.351,0-23.84-1.67-34.707-5.021c-14.706-4.535-28.265-12.316-41.376-19.841
					c-8.482-4.867-17.252-9.901-26.242-14.001c-20.692-9.439-44.439-14.945-72.596-16.833c-25.168-1.688-51.512-0.397-76.989,0.852
					c-23.899,1.171-48.612,2.382-72.459,1.155c-26.804-1.38-49.589-5.764-69.659-13.403l0.711-1.869
					c19.871,7.564,42.458,11.906,69.05,13.275c23.746,1.222,48.408,0.014,72.258-1.155c25.533-1.252,51.936-2.545,77.221-0.85
					c28.403,1.905,52.377,7.469,73.292,17.009c9.074,4.139,17.886,9.196,26.407,14.086c13.017,7.47,26.477,15.195,40.97,19.664
					c18.065,5.57,37.914,6.412,60.681,2.574c20.407-3.44,41.383-10.271,61.668-16.877c26.391-8.594,53.68-17.48,81.023-19.521
					c28.505-2.128,57.126,3.269,84.805,8.488c23.294,4.392,47.38,8.934,71.295,8.975c0.108,0,0.217,0,0.325,0
					c23.538,0,47.281-4.338,70.245-8.534c28.308-5.172,57.581-10.521,86.649-7.761c11.775,1.118,23.539,3.579,34.914,5.96
					c12.409,2.596,25.241,5.281,38.049,6.204c27.649,1.992,55.398-4.136,82.233-10.063c12.155-2.685,24.723-5.461,37.156-7.459
					c53.231-8.555,108.037-3.501,161.039,1.387c14.8,1.365,30.104,2.776,45.118,3.866c40.972,2.974,73.913,2.649,103.664-1.023
					c37.613-4.643,69.249-14.597,96.716-30.431l0.999,1.733c-27.703,15.971-59.585,26.007-97.47,30.684
					c-29.884,3.688-62.948,4.017-104.054,1.033c-15.033-1.091-30.347-2.504-45.157-3.869c-52.878-4.877-107.556-9.919-160.538-1.404
					c-12.375,1.989-24.915,4.759-37.042,7.437c-26.974,5.958-54.867,12.118-82.808,10.104c-12.942-0.933-25.841-3.632-38.315-6.242
					c-11.322-2.369-23.03-4.818-34.694-5.926c-28.792-2.734-57.926,2.589-86.101,7.737c-23.051,4.212-46.885,8.566-70.603,8.566
					c-0.111,0-0.219,0-0.329,0c-24.1-0.041-48.279-4.6-71.662-9.009c-27.552-5.195-56.042-10.567-84.286-8.459
					c-27.103,2.023-54.275,10.871-80.552,19.428c-20.354,6.628-41.401,13.482-61.954,16.947
					C33.023,244.378,24.083,245.175,15.555,245.175z"/>
			</g>
			<g>
				<path style="fill:#FFD3A3;" d="M733.849,395.736c-24.702,0.001-48.703-8.426-71.985-16.6
					c-10.212-3.586-20.772-7.293-31.226-10.228c-25.426-7.14-53.75-10.688-86.59-10.846c-29.323-0.137-59.499,2.373-88.679,4.805
					c-24.915,2.076-50.678,4.223-75.872,4.719c-38.15,0.75-76.843-2.301-114.264-5.253c-39.672-3.129-80.694-6.364-121.075-5.062
					c-22.024,0.71-44.354,2.788-65.949,4.797c-19.45,1.809-39.562,3.681-59.415,4.551c-45.525,1.996-92.054-1.146-137.051-4.184
					c-36.014-2.432-73.252-4.95-109.575-4.783c-40.683,0.183-75.965,3.782-107.863,11.004l-0.442-1.951
					c32.042-7.254,67.466-10.87,108.295-11.053c36.388-0.169,73.669,2.354,109.718,4.788c44.942,3.035,91.415,6.172,136.828,4.182
					c19.804-0.868,39.891-2.737,59.318-4.544c21.624-2.012,43.985-4.092,66.07-4.804c40.492-1.306,81.571,1.934,121.297,5.067
					c37.372,2.948,76.017,5.997,114.067,5.247c25.13-0.494,50.861-2.639,75.745-4.712c29.223-2.435,59.443-4.945,88.855-4.811
					c33.023,0.159,61.52,3.731,87.121,10.92c10.515,2.953,21.105,6.671,31.347,10.267c25.385,8.912,51.636,18.127,78.51,16.238
					c20.143-1.416,39.444-9.046,58.11-16.425c6.659-2.632,13.546-5.354,20.38-7.76c35.626-12.539,75.894-18.64,123.05-18.64
					c0.5,0,0.997,0.001,1.498,0.002c44.103,0.12,90.341,5.57,127.495,9.949l-0.234,1.986c-37.102-4.373-83.278-9.815-127.266-9.935
					c-0.497-0.001-0.999-0.002-1.494-0.002c-46.931,0-86.973,6.063-122.385,18.527c-6.798,2.393-13.666,5.108-20.308,7.733
					c-18.807,7.435-38.254,15.122-58.705,16.56C738.728,395.654,736.284,395.735,733.849,395.736z"/>
			</g>
			<g>
				<path style="fill:#FFD3A3;" d="M734.566,356.272c-3.044,0-6.095-0.129-9.155-0.405c-22.925-2.065-44.11-12.218-64.597-22.038
					c-16.476-7.897-33.513-16.062-51.399-20.01c-13.815-3.049-29.028-3.822-46.508-2.361c-15.639,1.307-31.661,4.245-47.157,7.087
					c-21.291,3.905-43.221,7.927-65.006,7.927c-3.046,0-6.086-0.078-9.125-0.247c-16.764-0.929-33.423-4.612-49.534-8.174
					c-14.268-3.155-29.022-6.417-43.757-7.739c-27.942-2.509-56.378,1.872-83.877,6.109c-28.447,4.383-57.862,8.915-86.863,5.864
					c-10.896-1.146-21.804-3.377-32.353-5.535c-12.522-2.561-25.471-5.21-38.393-6.031c-18.35-1.167-36.985,1.321-55.006,3.727
					c-6.559,0.876-13.341,1.781-20.02,2.499c-48.062,5.165-97.134,1.287-144.59-2.462c-17.806-1.407-36.217-2.862-54.305-3.817
					c-39.017-2.06-70.718-1.22-99.765,2.646c-36.035,4.795-66.707,14.18-93.77,28.691l-0.945-1.763
					c27.279-14.626,58.174-24.083,94.451-28.911c29.173-3.882,60.991-4.728,100.135-2.66c18.114,0.957,36.539,2.412,54.357,3.82
					c47.365,3.742,96.342,7.612,144.219,2.467c6.654-0.715,13.423-1.619,19.969-2.493c18.117-2.418,36.85-4.918,55.398-3.74
					c13.061,0.83,26.078,3.492,38.667,6.067c10.502,2.148,21.362,4.369,32.162,5.505c28.743,3.024,58.029-1.488,86.35-5.852
					c27.617-4.255,56.175-8.656,84.36-6.124c14.862,1.334,29.68,4.61,44.01,7.778c16.033,3.545,32.612,7.21,49.213,8.131
					c24.533,1.36,49.507-3.221,73.659-7.65c31.094-5.703,63.247-11.601,94.456-4.712c18.111,3.997,35.254,12.214,51.832,20.16
					c20.327,9.742,41.346,19.816,63.912,21.849c25.757,2.319,51.174-5.98,75.755-14.006c7.915-2.584,16.099-5.257,24.172-7.534
					c35.047-9.887,74.236-13.978,119.795-12.512c41.767,1.346,84.03,7.096,121.318,12.17l-0.27,1.982
					c-37.24-5.067-79.448-10.81-121.112-12.152c-45.354-1.463-84.341,2.607-119.187,12.437c-8.034,2.266-16.198,4.932-24.094,7.51
					C780.091,348.914,757.555,356.272,734.566,356.272z"/>
			</g>
			<g>
				<path style="fill:#FFD3A3;" d="M717.176,316.612c-6.483,0-13.381-1.12-19.083-2.046c-0.976-0.158-1.912-0.31-2.799-0.449
					c-5.251-0.82-10.398-2.049-12.485-5.466c-1.511-2.475-0.996-5.716,1.378-8.67c1.903-2.367,4.612-4.305,7.834-5.605
					c3.883-1.567,8.255-2.119,12.403-2.481c5.098-0.446,10.284-0.648,15.415-0.598c3.653,0.035,7.521,0.21,11.056,1.244
					c6.745,1.973,8.103,6.184,8.312,8.519c0.439,4.901-3.139,10.265-8.701,13.043C726.774,315.967,722.094,316.612,717.176,316.612z
					 M718.325,293.288c-4.577,0-9.187,0.201-13.726,0.598c-3.993,0.35-8.189,0.875-11.829,2.344
					c-2.906,1.173-5.335,2.903-7.024,5.004c-2.627,3.268-1.736,5.546-1.23,6.374c1.662,2.722,6.311,3.787,11.086,4.533
					c0.891,0.139,1.831,0.292,2.811,0.451c9.759,1.585,23.125,3.756,31.199-0.279c4.767-2.382,7.965-7.039,7.603-11.076
					c-0.283-3.156-2.727-5.563-6.881-6.778l0,0c-3.301-0.966-7.004-1.13-10.513-1.163
					C719.323,293.291,718.823,293.288,718.325,293.288z"/>
			</g>
			<g>
				<path style="fill:#FFD3A3;" d="M-370.309,303.998l-0.999-1.733c27.703-15.971,59.585-26.008,97.47-30.683
					c29.884-3.689,62.948-4.017,104.054-1.034c15.033,1.092,30.347,2.504,45.157,3.869c52.878,4.876,107.556,9.919,160.537,1.404
					c12.376-1.989,24.916-4.759,37.043-7.437c26.974-5.957,54.867-12.117,82.807-10.104c12.943,0.933,25.841,3.632,38.315,6.241
					c11.322,2.369,23.03,4.819,34.694,5.926c28.792,2.734,57.926-2.589,86.101-7.737c23.051-4.211,46.885-8.566,70.604-8.566
					c0.111,0,0.219,0,0.329,0c24.1,0.041,48.279,4.6,71.662,9.009c27.552,5.195,56.043,10.569,84.285,8.459
					c27.103-2.023,54.275-10.871,80.552-19.428c20.354-6.628,41.401-13.482,61.955-16.947c23.082-3.891,43.232-3.029,61.602,2.635
					c14.706,4.535,28.264,12.316,41.377,19.841c8.482,4.867,17.252,9.901,26.242,14.001c20.692,9.439,44.439,14.945,72.596,16.833
					c25.168,1.688,51.513,0.397,76.989-0.851c23.898-1.171,48.612-2.382,72.458-1.155c26.804,1.38,49.59,5.764,69.659,13.403
					l-0.711,1.869c-19.871-7.564-42.458-11.906-69.05-13.275c-23.747-1.222-48.408-0.014-72.258,1.155
					c-25.534,1.251-51.937,2.546-77.221,0.849c-28.402-1.905-52.377-7.468-73.292-17.009c-9.074-4.139-17.886-9.196-26.407-14.086
					c-13.017-7.47-26.477-15.195-40.97-19.664c-18.065-5.57-37.914-6.412-60.681-2.574c-20.407,3.441-41.383,10.271-61.668,16.877
					c-26.39,8.594-53.679,17.48-81.023,19.521c-4.372,0.326-8.751,0.476-13.125,0.476c-24.142,0.001-48.246-4.545-71.679-8.964
					c-23.294-4.392-47.381-8.934-71.295-8.974c-0.108,0-0.218,0-0.326,0c-23.538,0-47.279,4.338-70.243,8.534
					c-22.977,4.198-46.592,8.512-70.214,8.512c-5.482,0-10.961-0.232-16.436-0.752c-11.775-1.118-23.538-3.579-34.914-5.96
					c-12.409-2.596-25.24-5.281-38.049-6.204c-27.65-1.994-55.397,4.136-82.232,10.062c-12.155,2.685-24.724,5.461-37.157,7.459
					c-20.871,3.355-41.993,4.617-63.145,4.617c-32.795,0-65.673-3.033-97.894-6.004c-14.8-1.365-30.104-2.776-45.118-3.866
					c-40.973-2.974-73.913-2.649-103.664,1.023C-311.207,278.21-342.843,288.164-370.309,303.998z"/>
			</g>
			<g>
				<path style="fill:#FFD3A3;" d="M-320.404,237.423c-13.539,0-27.08-0.617-40.585-1.854l0.182-1.992
					c39.118,3.582,78.567,1.945,117.253-4.867c5.738-1.01,11.563-2.154,17.196-3.26c14.895-2.925,30.297-5.95,45.723-6.831
					l0.114,1.997c-15.289,0.874-30.623,3.885-45.452,6.797c-5.643,1.108-11.478,2.254-17.235,3.268
					C-268.711,235.171-294.55,237.423-320.404,237.423z"/>
			</g>
			<g>
				<path style="fill:#FFD3A3;" d="M-313.368,417.696c-15.218,0-29.13-1.803-42.124-5.437l0.539-1.926
					c18.762,5.246,39.496,6.626,63.387,4.217c21.38-2.155,43.363-7.091,64.622-11.863c25.274-5.674,51.409-11.541,77.23-12.969
					c29.622-1.637,59.54,2.587,88.472,6.671c7.023,0.991,14.285,2.017,21.421,2.94c64.477,8.346,130.023,9.859,194.817,4.497
					c15.118-1.251,30.479-2.903,45.334-4.5c34.025-3.658,69.207-7.442,103.996-6.687c18.454,0.4,37.146,2.087,55.222,3.718
					c22.212,2.005,45.18,4.075,67.818,3.766c19.26-0.264,38.796-2.261,57.69-4.193c23.407-2.393,47.614-4.868,71.535-4.075
					c27.511,0.911,55.004,6.151,81.591,11.218c20.445,3.897,41.587,7.926,62.589,9.957c55.599,5.38,112.572-2.921,167.669-10.949
					c34.203-4.983,69.57-10.135,104.102-11.92c38.749-2.003,72.397,0.542,102.865,7.777l-0.462,1.946
					c-30.281-7.191-63.742-9.719-102.3-7.726c-34.439,1.779-69.76,6.925-103.917,11.902c-42.955,6.258-87.055,12.682-130.81,12.683
					c-12.488,0-24.942-0.523-37.341-1.723c-21.093-2.041-42.281-6.079-62.771-9.984c-26.512-5.052-53.927-10.277-81.282-11.183
					c-23.789-0.789-47.925,1.68-71.266,4.066c-18.936,1.936-38.518,3.938-57.866,4.203c-22.743,0.313-45.763-1.765-68.025-3.774
					c-18.043-1.628-36.7-3.312-55.086-3.711c-34.659-0.75-69.777,3.024-103.739,6.677c-14.867,1.598-30.24,3.252-45.383,4.505
					c-25.349,2.098-50.824,3.146-76.294,3.146c-39.774,0.001-79.553-2.553-118.945-7.653c-7.147-0.925-14.415-1.951-21.444-2.944
					c-28.837-4.071-58.654-8.282-88.082-6.654c-25.656,1.418-51.708,7.267-76.902,12.923c-21.317,4.786-43.359,9.734-64.859,11.902
					C-299.004,417.309-306.327,417.696-313.368,417.696z"/>
			</g>
		</g>
	</g>
</g>
<g id="OBJECTS">
	<g>
		<g style="opacity:0.3;">
			<path style="fill:#FFD3A3;" d="M97.771,280.273c-0.535-28.641,9.107-58.244,29.734-79.488
				c24.088-24.809,61.99-35.102,90.858-52.552c47.45-28.683,100.061-95.855,165.469-90.346
				c62.859,5.296,74.993,71.571,118.394,104.841c34.508,26.452,77.794,38.675,110.615,67.576
				c21.078,18.56,35.233,46.226,38.61,75.462c3.377,29.236-4.063,59.71-20.293,83.123c-25.621,36.959-70.242,53.576-112.872,53.545
				c-42.63-0.031-84.121-14.487-124.554-29.512c-40.433-15.025-81.273-30.917-123.828-33.995
				c-34.16-2.471-68.507,7.263-102.404-0.956C122.57,367.074,98.591,324.159,97.771,280.273z"/>
		</g>
		<g style="opacity:0.3;">
			<path style="fill:#FFD3A3;" d="M157.816,167.422c8.674-19.908,24.331-35.828,48.914-42.219
				c31.965-8.311,67.846,8.052,98.439,16.274c37.126,9.978,75.644,7.386,114.158,7.721c19.327,0.168,38.183-2.58,57.384-3.659
				c28.406-1.597,60.6-4.412,87.608,7.93c29.068,13.283,39.235,38.747,35.551,67.02c-2.031,15.582-6.836,30.697-12.026,45.54
				c-10.587,30.278-27.201,58.772-48.243,83.644c-4.256,5.031-8.707,9.915-13.357,14.625
				c-35.981,36.44-85.928,61.594-138.863,64.523c-44.618,2.469-89.687-10.884-126.844-34.647
				c-26.638-17.035-49.059-39.315-66.769-64.583c-17.89-25.525-34.213-55.472-40.989-85.457
				C147.089,218.957,147.758,190.508,157.816,167.422z"/>
		</g>
		<g>
			<path style="fill:#FFFFFF;" d="M120.094,327.816c-5.386-27.038-1.695-56.623,13.397-80.06
				c17.625-27.37,50.275-43.215,73.499-64.385c38.172-34.797,74.446-106.874,134.772-112.18
				c57.975-5.097,80.329,55.715,125.423,80.24c35.854,19.5,77.244,24.111,111.986,46.201c22.312,14.186,39.896,38.109,47.963,65.253
				c8.067,27.144,6.526,57.2-4.204,81.984c-16.938,39.123-54.607,62.038-93.315,68.867c-38.708,6.829-78.85-0.187-118.13-7.911
				c-39.279-7.725-79.076-16.204-118.237-12.274c-31.436,3.155-60.954,17.9-93.135,15.569
				C157.457,406.029,128.346,369.245,120.094,327.816z"/>
		</g>
		<g>
			<defs>
				<path id="SVGID_00000145057641392198970590000011145100842253183386_" d="M120.094,327.816
					c-5.386-27.038-1.695-56.623,13.397-80.06c17.625-27.37,50.275-43.215,73.499-64.385
					c38.172-34.797,74.446-106.874,134.772-112.18c57.975-5.097,80.329,55.715,125.423,80.24
					c35.854,19.5,77.244,24.111,111.986,46.201c22.312,14.186,39.896,38.109,47.963,65.253c8.067,27.144,6.526,57.2-4.204,81.984
					c-16.938,39.123-54.607,62.038-93.315,68.867c-38.708,6.829-78.85-0.187-118.13-7.911
					c-39.279-7.725-79.076-16.204-118.237-12.274c-31.436,3.155-60.954,17.9-93.135,15.569
					C157.457,406.029,128.346,369.245,120.094,327.816z"/>
			</defs>
			<clipPath id="SVGID_00000172408629149607053750000001367277064823231104_">
				<use xlink:href="#SVGID_00000145057641392198970590000011145100842253183386_"  style="overflow:visible;"/>
			</clipPath>
			<g style="clip-path:url(#SVGID_00000172408629149607053750000001367277064823231104_);">
				<g>
					<rect x="113.896" y="300.85" style="fill:#FFD3A3;" width="522.208" height="144.12"/>
				</g>
				<g>
					<defs>
						
							<rect id="SVGID_00000139284097149798516630000013293502030215699609_" x="113.896" y="300.85" width="522.208" height="144.12"/>
					</defs>
					<clipPath id="SVGID_00000048487979560802909450000017147674977212810170_">
						<use xlink:href="#SVGID_00000139284097149798516630000013293502030215699609_"  style="overflow:visible;"/>
					</clipPath>
					<g style="clip-path:url(#SVGID_00000048487979560802909450000017147674977212810170_);">
						<g>
							<path style="fill:#F9BF87;" d="M153.633,325.251c-16.776,0-33.469-1.968-49.098-3.809l0.234-1.986
								c30.285,3.569,64.611,7.615,95.462-3.244c2.58-0.908,5.193-1.941,7.72-2.94c7.213-2.852,14.672-5.8,22.563-6.355
								c10.531-0.738,20.673,2.821,30.483,6.265c3.884,1.364,7.9,2.774,11.866,3.887c21.506,6.04,44.428,4.129,66.596,2.283
								c9.508-0.792,19.339-1.612,28.963-1.801c14.573-0.288,29.34,0.878,43.62,2.004c15.107,1.191,30.728,2.423,46.087,1.928
								c8.377-0.27,16.881-1.061,25.104-1.826c7.422-0.69,15.096-1.404,22.68-1.737c17.389-0.763,35.144,0.436,52.315,1.596
								c27.379,1.848,55.69,3.76,82.712-2.358l0.442,1.951c-27.307,6.182-55.766,4.261-83.289,2.402
								c-17.116-1.156-34.815-2.35-52.093-1.593c-7.534,0.33-15.184,1.042-22.582,1.73c-8.253,0.768-16.787,1.562-25.225,1.834
								c-15.471,0.498-31.148-0.738-46.309-1.933c-14.232-1.122-28.949-2.282-43.423-1.998c-9.56,0.188-19.36,1.005-28.836,1.794
								c-22.344,1.862-45.45,3.787-67.303-2.35c-4.028-1.131-8.074-2.552-11.988-3.926c-9.618-3.376-19.563-6.866-29.68-6.157
								c-7.584,0.533-14.897,3.424-21.969,6.22c-2.544,1.006-5.175,2.046-7.791,2.967
								C185.639,323.468,169.598,325.251,153.633,325.251z"/>
						</g>
						<g>
							<path style="fill:#F9BF87;" d="M591.566,341.665c-4.652,0-9.572-0.14-14.839-0.418c-6.913-0.365-13.941-0.92-20.738-1.457
								c-18.028-1.425-36.671-2.898-54.863-0.942c-2.529,0.272-5.105,0.616-7.597,0.948c-6.936,0.926-14.107,1.884-21.24,1.43
								c-5.022-0.319-10.006-1.339-14.826-2.324c-3.989-0.816-8.114-1.659-12.201-2.09c-10.879-1.144-22.001,0.57-32.759,2.227
								c-10.565,1.628-21.49,3.311-32.309,2.339c-5.705-0.512-11.373-1.765-16.855-2.977c-6.088-1.346-12.384-2.738-18.662-3.086
								c-9.278-0.515-18.763,1.225-27.935,2.907c-11.914,2.185-24.234,4.445-36.253,1.792c-6.974-1.539-13.542-4.687-19.893-7.732
								c-7.699-3.69-15.661-7.506-24.152-8.271c-9.693-0.871-19.321,2.271-28.632,5.312c-3.023,0.987-6.149,2.008-9.238,2.879
								c-30.343,8.56-63.188,4.091-92.167,0.148l0.27-1.982c28.785,3.917,61.412,8.356,91.355-0.091
								c3.05-0.861,6.156-1.875,9.16-2.855c9.504-3.103,19.331-6.312,29.432-5.402c8.851,0.797,16.978,4.692,24.837,8.46
								c6.249,2.995,12.712,6.092,19.46,7.582c11.625,2.566,23.743,0.343,35.461-1.806c9.287-1.703,18.89-3.465,28.406-2.937
								c6.441,0.357,12.817,1.767,18.983,3.13c5.42,1.198,11.025,2.437,16.602,2.938c10.578,0.95,21.379-0.715,31.825-2.324
								c10.884-1.677,22.137-3.41,33.273-2.24c4.183,0.44,8.356,1.294,12.392,2.119c4.753,0.972,9.668,1.978,14.552,2.288
								c6.934,0.441,14.008-0.503,20.848-1.416c2.504-0.334,5.094-0.68,7.648-0.954c18.38-1.976,37.116-0.495,55.235,0.937
								c6.784,0.536,13.799,1.09,20.686,1.454c21.747,1.148,49.749,0.837,73.454-11.874l0.945,1.763
								c-10.466,5.612-22.313,9.239-36.217,11.089C607.783,341.19,600.129,341.665,591.566,341.665z"/>
						</g>
						<g>
							<path style="fill:#F9BF87;" d="M234.079,347.873c-0.196,0-0.391-0.001-0.586-0.003c-1.437-0.014-2.962-0.083-4.382-0.499l0,0
								c-2.135-0.625-3.452-2.005-3.611-3.786c-0.19-2.116,1.314-4.411,3.657-5.581c3.477-1.737,8.826-0.868,12.732-0.234
								c0.371,0.06,0.727,0.118,1.064,0.171c2.002,0.313,4.219,0.779,5.192,2.373c0.718,1.176,0.505,2.677-0.571,4.015
								c-0.791,0.985-1.911,1.788-3.237,2.323c-1.555,0.627-3.277,0.846-4.906,0.988
								C237.661,347.795,235.864,347.873,234.079,347.873z M229.672,345.452c1.187,0.347,2.547,0.406,3.84,0.418
								c1.912,0.02,3.845-0.057,5.743-0.223c1.475-0.129,3.02-0.322,4.332-0.851c0.995-0.402,1.858-1.013,2.427-1.721
								c0.197-0.244,0.808-1.09,0.423-1.72c-0.572-0.936-2.748-1.276-3.794-1.439c-0.341-0.053-0.701-0.112-1.076-0.173
								c-3.432-0.557-8.618-1.399-11.518,0.049c-1.599,0.799-2.674,2.318-2.559,3.613
								C227.598,344.601,228.736,345.178,229.672,345.452L229.672,345.452z"/>
						</g>
						<g>
							<path style="fill:#F9BF87;" d="M236.736,370.142c-4.461,0-8.911-0.569-13.338-1.933c-5.672-1.749-10.871-4.733-15.899-7.618
								c-3.221-1.849-6.552-3.76-9.952-5.311c-17.456-7.962-37.425-6.984-56.737-6.037c-18.318,0.898-37.259,1.826-54.428-4.709
								l0.711-1.869c16.777,6.386,35.506,5.468,53.618,4.581c19.551-0.958,39.767-1.948,57.665,6.215
								c3.485,1.59,6.857,3.525,10.118,5.396c4.933,2.831,10.034,5.758,15.493,7.442c15.169,4.677,30.275-0.241,46.267-5.449
								c10.095-3.287,20.534-6.687,31.033-7.47c10.948-0.817,21.899,1.248,32.489,3.245c8.852,1.669,18.006,3.395,27.065,3.41
								c0.041,0,0.083,0,0.124,0c8.917,0,17.94-1.648,26.667-3.243c10.833-1.979,22.035-4.026,33.201-2.966
								c4.523,0.43,9.025,1.372,13.379,2.282c4.71,0.986,9.581,2.005,14.422,2.354c10.452,0.753,20.984-1.573,31.17-3.823
								c4.642-1.025,9.443-2.085,14.2-2.85c20.37-3.274,41.303-1.344,61.546,0.523c5.639,0.52,11.47,1.058,17.187,1.473
								c22.898,1.662,52.235,1.81,76.034-11.91l0.999,1.733c-24.27,13.992-53.995,13.855-77.178,12.172
								c-5.737-0.416-11.577-0.955-17.226-1.476c-20.12-1.855-40.925-3.774-61.045-0.54c-4.7,0.755-9.472,1.809-14.086,2.829
								c-8.957,1.978-18.18,4.015-27.477,4.015c-1.422,0-2.843-0.048-4.268-0.15c-4.975-0.359-9.913-1.392-14.688-2.391
								c-4.299-0.9-8.746-1.83-13.158-2.249c-10.891-1.035-21.954,0.987-32.653,2.942c-8.814,1.611-17.928,3.276-27.026,3.276
								c-0.043,0-0.085,0-0.128,0c-9.245-0.016-18.491-1.759-27.433-3.445c-10.464-1.973-21.283-4.014-31.97-3.215
								c-10.258,0.766-20.58,4.127-30.562,7.378C259.661,366.401,248.173,370.141,236.736,370.142z"/>
						</g>
						<g>
							<path style="fill:#F9BF87;" d="M510.632,427.547c-9.517,0-18.718-3.23-27.642-6.363c-3.884-1.363-7.9-2.774-11.866-3.887
								c-21.506-6.04-44.429-4.129-66.597-2.282c-9.508,0.792-19.339,1.612-28.963,1.801c-14.572,0.288-29.34-0.878-43.621-2.004
								c-15.106-1.192-30.727-2.424-46.087-1.928c-8.377,0.27-16.88,1.061-25.102,1.826c-7.422,0.691-15.098,1.404-22.681,1.737
								c-17.39,0.763-35.145-0.437-52.315-1.596c-27.379-1.849-55.691-3.76-82.712,2.358l-0.442-1.951
								c27.307-6.182,55.766-4.261,83.288-2.402c17.116,1.155,34.814,2.35,52.092,1.593c7.535-0.33,15.185-1.042,22.584-1.73
								c8.252-0.768,16.785-1.561,25.223-1.834c15.47-0.499,31.147,0.738,46.308,1.933c14.233,1.123,28.952,2.283,43.424,1.999
								c9.56-0.188,19.36-1.005,28.836-1.794c22.345-1.862,45.45-3.787,67.303,2.35c4.028,1.131,8.075,2.551,11.988,3.926
								c9.618,3.376,19.564,6.867,29.681,6.157c7.583-0.533,14.897-3.424,21.969-6.22c2.544-1.006,5.175-2.046,7.791-2.967
								c31.289-11.012,65.859-6.938,96.361-3.343l-0.234,1.986c-30.285-3.569-64.611-7.615-95.462,3.244
								c-2.58,0.908-5.193,1.941-7.72,2.94c-7.213,2.852-14.672,5.8-22.564,6.355C512.523,427.515,511.575,427.547,510.632,427.547z
								"/>
						</g>
						<g>
							<path style="fill:#F9BF87;" d="M510.915,412.502c-1.18,0-2.363-0.05-3.551-0.157c-8.851-0.797-16.978-4.692-24.837-8.459
								c-6.249-2.995-12.711-6.092-19.46-7.582c-11.625-2.566-23.743-0.344-35.462,1.806c-9.287,1.703-18.889,3.465-28.406,2.937
								c-6.441-0.357-12.817-1.767-18.984-3.13c-5.42-1.198-11.024-2.437-16.602-2.938c-10.576-0.949-21.379,0.715-31.825,2.324
								c-10.884,1.677-22.138,3.411-33.273,2.239c-4.184-0.44-8.357-1.293-12.392-2.119c-4.753-0.972-9.668-1.978-14.552-2.288
								c-6.935-0.441-14.008,0.503-20.848,1.416c-2.504,0.334-5.094,0.68-7.648,0.955c-18.379,1.975-37.116,0.495-55.235-0.937
								c-6.784-0.536-13.799-1.09-20.686-1.454c-21.746-1.148-49.749-0.837-73.454,11.874l-0.945-1.763
								c10.466-5.612,22.313-9.239,36.217-11.089c11.16-1.485,23.327-1.809,38.287-1.018c6.913,0.365,13.941,0.92,20.738,1.457
								c18.028,1.424,36.67,2.897,54.864,0.942c2.529-0.272,5.105-0.616,7.596-0.949c6.936-0.926,14.107-1.883,21.24-1.43
								c5.022,0.319,10.006,1.339,14.826,2.324c3.989,0.816,8.114,1.659,12.201,2.089c10.878,1.145,22.002-0.57,32.759-2.227
								c10.565-1.628,21.49-3.31,32.309-2.34c5.705,0.512,11.373,1.766,16.855,2.977c6.088,1.346,12.384,2.738,18.663,3.086
								c9.279,0.516,18.763-1.225,27.934-2.907c11.914-2.185,24.234-4.445,36.253-1.792c6.974,1.539,13.542,4.687,19.893,7.732
								c7.699,3.69,15.661,7.506,24.152,8.271c9.691,0.873,19.321-2.271,28.633-5.312c3.023-0.987,6.149-2.008,9.238-2.879
								c30.343-8.56,63.188-4.091,92.167-0.148l-0.27,1.982c-28.786-3.916-61.412-8.356-91.355,0.091
								c-3.05,0.861-6.156,1.875-9.16,2.855C528.41,409.682,519.771,412.502,510.915,412.502z"/>
						</g>
						<g>
							<path style="fill:#F9BF87;" d="M504.274,397.383c-2.52,0-5.172-0.431-7.368-0.787c-0.371-0.06-0.727-0.118-1.064-0.171
								c-2.002-0.312-4.219-0.779-5.192-2.373c-0.718-1.176-0.505-2.677,0.572-4.015c0.791-0.984,1.91-1.788,3.237-2.323
								c1.555-0.627,3.277-0.846,4.906-0.988c1.963-0.172,3.961-0.25,5.937-0.23c1.437,0.014,2.962,0.083,4.382,0.499l0,0
								c2.135,0.624,3.452,2.005,3.611,3.786c0.189,2.116-1.314,4.411-3.657,5.581C508.116,397.121,506.235,397.383,504.274,397.383
								z M504.715,388.492c-1.727,0-3.465,0.076-5.176,0.225c-1.474,0.129-3.02,0.322-4.332,0.851
								c-0.996,0.402-1.858,1.013-2.427,1.722c-0.197,0.244-0.808,1.09-0.423,1.72c0.572,0.936,2.748,1.276,3.794,1.439
								c0.341,0.053,0.701,0.112,1.076,0.173c3.432,0.557,8.618,1.399,11.517-0.049c1.599-0.799,2.675-2.318,2.559-3.613
								c-0.107-1.195-1.245-1.772-2.181-2.046l0,0c-1.187-0.347-2.547-0.406-3.84-0.418
								C505.094,388.493,504.904,388.492,504.715,388.492z"/>
						</g>
						<g>
							<path style="fill:#F9BF87;" d="M90.022,392.492l-0.999-1.733c24.27-13.992,53.994-13.855,77.178-12.172
								c5.737,0.416,11.577,0.955,17.226,1.476c20.12,1.856,40.925,3.774,61.045,0.54c4.7-0.755,9.472-1.809,14.086-2.828
								c10.326-2.281,21.004-4.641,31.745-3.865c4.975,0.359,9.913,1.392,14.688,2.391c4.3,0.9,8.746,1.83,13.158,2.249
								c10.891,1.035,21.954-0.987,32.653-2.942c8.815-1.61,17.928-3.275,27.026-3.275c0.042,0,0.084,0,0.127,0
								c9.245,0.016,18.491,1.759,27.433,3.445c10.464,1.973,21.285,4.013,31.97,3.216c10.258-0.766,20.58-4.127,30.562-7.378
								c15.585-5.075,31.701-10.323,47.476-5.459c5.672,1.749,10.871,4.733,15.899,7.618c3.221,1.848,6.552,3.76,9.953,5.311
								c17.456,7.962,37.424,6.984,56.737,6.038c18.317-0.897,37.26-1.826,54.428,4.709l-0.711,1.869
								c-16.777-6.386-35.505-5.468-53.619-4.581c-19.551,0.958-39.767,1.949-57.665-6.215c-3.485-1.59-6.857-3.525-10.118-5.396
								c-4.933-2.831-10.034-5.758-15.493-7.442c-15.169-4.677-30.275,0.242-46.267,5.449c-10.095,3.287-20.534,6.687-31.033,7.47
								c-10.947,0.817-21.899-1.248-32.49-3.245c-8.852-1.669-18.006-3.395-27.065-3.41c-0.041,0-0.082,0-0.123,0
								c-8.917,0-17.94,1.648-26.667,3.243c-10.833,1.979-22.035,4.026-33.202,2.966c-4.523-0.429-9.025-1.372-13.378-2.282
								c-4.71-0.986-9.581-2.005-14.422-2.354c-10.451-0.755-20.984,1.573-31.17,3.823c-4.642,1.025-9.443,2.086-14.2,2.85
								c-20.37,3.274-41.302,1.344-61.546-0.523c-5.639-0.52-11.47-1.058-17.187-1.473
								C143.158,378.92,113.821,378.772,90.022,392.492z"/>
						</g>
						<g>
							<path style="fill:#F9BF87;" d="M108.738,367.195c-5.18,0-10.361-0.236-15.528-0.709l0.182-1.992
								c14.857,1.361,29.841,0.738,44.535-1.848c2.181-0.384,4.399-0.82,6.544-1.241c5.699-1.119,11.591-2.276,17.514-2.615
								l0.114,1.997c-5.786,0.331-11.611,1.475-17.243,2.581c-2.154,0.423-4.382,0.86-6.582,1.248
								C128.516,366.333,118.63,367.195,108.738,367.195z"/>
						</g>
						<g>
							<path style="fill:#F9BF87;" d="M526.652,373.507c-7.071,0-14.143-0.385-21.182-1.157l0.218-1.988
								c16.505,1.81,33.199,1.473,49.617-0.999c2.528-0.381,5.1-0.82,7.586-1.245c6.907-1.18,14.05-2.401,21.201-2.53
								c8.915-0.165,17.826,1.372,26.441,2.854c4.544,0.782,9.242,1.591,13.872,2.137c12.104,1.429,24.341,1.165,36.372-0.785
								l0.32,1.974c-12.214,1.979-24.638,2.247-36.926,0.797c-4.683-0.553-9.407-1.366-13.977-2.152
								c-8.523-1.467-17.334-2.98-26.065-2.826c-7,0.127-14.066,1.334-20.9,2.502c-2.496,0.427-5.078,0.867-7.625,1.251
								C546.016,372.784,536.335,373.507,526.652,373.507z"/>
						</g>
						<g>
							<path style="fill:#F9BF87;" d="M111.335,435.91c-5.416,0-10.809-0.597-16.139-2.087l0.539-1.926
								c15.799,4.418,31.682,0.852,48.497-2.923c9.66-2.169,19.648-4.411,29.542-4.958c11.354-0.627,22.789,0.987,33.847,2.548
								c2.676,0.378,5.443,0.768,8.159,1.12c24.536,3.176,49.479,3.751,74.137,1.711c5.755-0.476,11.606-1.105,17.265-1.714
								c12.991-1.397,26.424-2.841,39.726-2.553c7.056,0.153,14.193,0.797,21.095,1.42c8.451,0.763,17.189,1.554,25.788,1.433
								c7.314-0.1,14.748-0.86,21.937-1.595c8.944-0.914,18.195-1.86,27.355-1.556c10.536,0.349,21.041,2.351,31.2,4.287
								c7.78,1.483,15.825,3.016,23.803,3.788c21.122,2.043,42.802-1.115,63.77-4.17c26.124-3.806,53.137-7.742,79.131-1.569
								l-0.462,1.946c-25.621-6.084-52.442-2.176-78.381,1.602c-21.086,3.072-42.889,6.249-64.25,4.182
								c-8.069-0.781-16.16-2.323-23.985-3.814c-10.084-1.922-20.511-3.909-30.892-4.253c-9.027-0.301-18.207,0.639-27.085,1.547
								c-7.232,0.74-14.71,1.504-22.113,1.606c-8.698,0.119-17.493-0.674-25.995-1.441c-6.868-0.62-13.97-1.261-20.959-1.412
								c-13.173-0.285-26.541,1.152-39.469,2.542c-5.671,0.61-11.535,1.241-17.314,1.719c-24.798,2.053-49.883,1.473-74.558-1.721
								c-2.728-0.353-5.501-0.745-8.182-1.123c-10.963-1.548-22.3-3.149-33.457-2.532c-9.729,0.537-19.635,2.761-29.215,4.912
								C133.693,433.389,122.465,435.91,111.335,435.91z"/>
						</g>
					</g>
				</g>
			</g>
		</g>
	</g>
	<g>
		<g>
			<g>
				<path d="M396.542,87.521c-3.299,13.718-24.217,9.527-22.381-4.197C376.308,67.274,400.256,72.076,396.542,87.521z"/>
			</g>
			<g>
				<path d="M346.795,173.589c-5.779,3.642-11.67,7.335-18.349,9.249c-6.679,1.913-14.388,1.809-20.125-1.811
					c-5.737-3.621-8.568-11.315-4.993-16.855c2.909-4.51,9.396-7.233,9.976-12.437c0.496-4.447-3.74-8.152-4.502-12.559
					c-0.965-5.576,3.87-10.726,9.245-13.499c5.376-2.773,11.556-4.103,16.71-7.215s9.224-9.055,7.012-14.314
					c13.023,2.05,26.58,0.734,39.096-3.291c-0.697,4.501,6.68,9.913,11.294,11.495c4.615,1.583,9.695,1.461,14.566,2.166
					c4.871,0.705,10.033,2.604,12.218,6.662c1.624,3.014,1.291,6.661,2.747,9.748c2.101,4.453,7.344,6.768,11.09,10.18
					c8.679,7.904,7.716,22.868-1.924,29.896c-9.64,7.028-28.382,7.973-34.729-1.631"/>
			</g>
			<g>
				<polygon style="fill:#FFB78F;" points="388.92,167.182 384.139,183.356 342.859,179.107 348.314,166.632 352.995,137.084 
					382.365,119.551 				"/>
			</g>
			<g>
				<path d="M369.649,137.648c-3.603,8.626-11.009,15.459-19.72,18.788l2.927-18.459l8.76-5.265
					C364.311,134.363,366.897,135.988,369.649,137.648z"/>
			</g>
			<g>
				<path style="fill:#FFB78F;" d="M389.809,107.776c-0.003,0.447-0.021,0.758-0.026,0.914c-0.003,0.073-0.008,0.104-0.008,0.104
					l-0.792,1.701l-14.804,31.974c0,0-18.029,16.084-34.243-0.366c-8.993-9.148-10.127-31.751-4.082-48.967
					c0.189-0.538,0.384-1.067,0.582-1.587c0.005-0.01,0.008-0.026,0.016-0.042l0.091-0.234c0.039-0.112,0.081-0.221,0.13-0.33
					c0.026-0.044,0.034-0.096,0.052-0.135c0-0.01,0.003-0.016,0.01-0.026c0.19-0.47,0.387-0.94,0.589-1.397
					c0.065-0.145,0.132-0.288,0.197-0.431c0.057-0.119,0.099-0.239,0.156-0.353c0.135-0.312,0.28-0.618,0.434-0.922
					c0.179-0.382,0.366-0.756,0.558-1.127c0.083-0.161,0.164-0.325,0.249-0.48c2.96-5.601,6.861-10.099,11.68-12.594
					c1.096-0.558,2.236-1.034,3.428-1.376c0.545-0.166,1.104-0.299,1.667-0.41c0.454-0.086,0.919-0.161,1.384-0.213
					c1.22-0.145,2.469-0.174,3.768-0.083c0.122,0.016,0.249,0.023,0.369,0.039c11.08,0.878,17.876,5.897,22.057,11.966
					c4.822,6.985,6.134,15.391,6.458,20.559c0.005,0.065,0.01,0.13,0.01,0.195c0.005,0.06,0.01,0.119,0.01,0.182
					c0.01,0.073,0.013,0.143,0.016,0.215c0.003,0.052,0.005,0.101,0.008,0.153c0.01,0.221,0.018,0.434,0.026,0.644
					c0.005,0.182,0.013,0.351,0.016,0.522v0.239l0.003,0.483C389.817,107.049,389.82,107.447,389.809,107.776z"/>
			</g>
			<g>
				<path d="M349.529,124.376c-1.075-0.078-2.077-0.605-2.75-1.447c-0.672-0.842-0.965-1.936-0.802-3.002l1.997-13.1l1.977,0.302
					l-1.997,13.1c-0.08,0.523,0.058,1.039,0.388,1.452c0.33,0.414,0.803,0.662,1.331,0.7L349.529,124.376z"/>
			</g>
			<g>
				<path d="M358.703,108.952c-0.072,1,0.448,1.853,1.163,1.904c0.714,0.051,1.352-0.717,1.424-1.718
					c0.072-1-0.448-1.853-1.163-1.904C359.413,107.183,358.775,107.952,358.703,108.952z"/>
			</g>
			<g>
				<path d="M339.041,107.534c-0.072,1,0.448,1.853,1.163,1.904c0.714,0.052,1.352-0.718,1.424-1.718
					c0.072-1-0.449-1.853-1.163-1.904C339.751,105.765,339.114,106.534,339.041,107.534z"/>
			</g>
			<g>
				<path d="M363.773,100.807c0.547,0.183,1.095,0.4,1.518,0.716c0.423,0.317,0.705,0.752,0.602,1.127
					c-0.17,0.62-1.227,0.805-2.156,0.813c-1.993,0.018-4.089-0.362-5.988-1.086c-0.672-0.256-1.39-0.619-1.569-1.119
					c-0.418-1.164,1.695-1.359,2.55-1.349C360.393,99.93,362.176,100.274,363.773,100.807z"/>
			</g>
			<g>
				<path d="M343.15,98.772c0.495,0.081,0.995,0.194,1.397,0.415c0.402,0.221,0.694,0.571,0.645,0.925
					c-0.081,0.585-0.98,0.913-1.787,1.062c-1.73,0.319-3.594,0.295-5.323-0.069c-0.612-0.129-1.275-0.347-1.485-0.771
					c-0.488-0.986,1.328-1.483,2.071-1.604C340.117,98.495,341.705,98.534,343.15,98.772z"/>
			</g>
			<g>
				<path style="fill:#FFFFFF;" d="M359.303,125.241c0.252,2.103-1.25,4.012-3.353,4.264c-2.103,0.252-4.012-1.25-4.264-3.353"/>
			</g>
			<g>
				<path d="M389.773,104.704c-2.065,0.782-4.35,0.982-6.508,0.509c-3.436-0.748-6.461-3.179-7.933-6.37
					c-1.924-4.173-1.405-9.574-4.695-12.781c-2.306-2.246-5.811-2.683-8.543-4.386c-2.275-1.423-3.815-3.802-4.443-6.401
					c-0.963,1.701-2.368,3.124-4.176,3.83c-1.703,0.667-3.648,0.667-5.251,1.555c-2.194,1.218-3.217,3.778-4.903,5.64
					c-1.545,1.703-3.724,2.784-5.999,3.085c0.065-0.145,0.132-0.288,0.197-0.431c0.057-0.119,0.099-0.239,0.156-0.353
					c0.135-0.312,0.28-0.618,0.434-0.922c0.179-0.382,0.366-0.756,0.558-1.127c0.083-0.161,0.164-0.325,0.249-0.48
					c2.96-5.601,6.861-10.099,11.68-12.594c1.096-0.558,2.236-1.034,3.428-1.376c0.545-0.166,1.104-0.299,1.667-0.41
					c0.454-0.086,0.919-0.161,1.384-0.213c1.22-0.145,2.469-0.174,3.768-0.083c0.122,0.016,0.249,0.023,0.369,0.039
					c11.08,0.878,17.876,5.897,22.057,11.966c4.822,6.985,6.134,15.391,6.458,20.559c0.005,0.065,0.01,0.13,0.01,0.195
					c0.005,0.06,0.01,0.119,0.01,0.182c0.01,0.073,0.013,0.143,0.016,0.215C389.768,104.603,389.77,104.652,389.773,104.704z"/>
			</g>
			<g>
				<path style="fill:#FFB78F;" d="M381.774,106.512c1.151-2.026,3.558-3.168,5.887-3.097c2.329,0.071,4.54,1.238,6.178,2.894
					c3.743,3.785,4.37,10.254,1.423,14.687c-2.946,4.433-9.153,6.36-14.092,4.375"/>
			</g>
			<g>
				<path d="M389.855,118.786l-1.999-0.068c0.095-2.766-1.039-5.564-3.033-7.484l0.681-1.72l5.19-0.067l0.026,2l-3.063,0.04
					C389.141,113.601,389.943,116.204,389.855,118.786z"/>
			</g>
		</g>
		<g>
			<path style="fill:#BFD6B0;" d="M458.356,271.247l-34.249-29.969l-15.246,8.71l-99.503,50.863v-18.247
				c-3.524,2.682-7.362,4.739-11.54,5.926c-2.693,0.769-5.529,1.174-8.512,1.155c-39.211-0.26-54.013-68.295-54.013-68.295
				l31.94-23.89l22.851,25.448c0,0,9.704-19.455,17.905-33.966c4.181-7.406,7.972-13.524,9.881-15.113
				c3.098-2.584,10.644-4.386,17.448-5.549c3.68-0.626,7.144-1.067,9.569-1.34c2.103-0.236,3.425-0.348,3.425-0.348
				c8.31,25.188,40.608,0.55,40.608,0.55s1.296,0.049,3.384,0.166c2.472,0.14,6.058,0.371,9.922,0.722
				c7.681,0.699,16.463,1.87,19.774,3.721C430.83,176.725,464.069,234.893,458.356,271.247z"/>
		</g>
		<g>
			<path style="fill:#FF5158;" d="M418.106,300.85H309.302l0.057-18.247l-0.057-40.699c0,0,13.763-12.464,21.553-38.172
				l4.464-35.412c3.68-0.626,7.144-1.067,9.569-1.34l-3.905,36.752h47.001l4.321-36.383c2.472,0.14,6.058,0.371,9.922,0.722
				l-3.384,35.661l5.5,20.255l4.518,26.001L418.106,300.85z"/>
		</g>
		<g>
			<path style="fill:#F43745;" d="M453.547,283.748c-4.49,7.027-11.472,12.646-19.268,17.102h-60.234l-8.133-22.852l35.316-28.564
				l3.116-25.448l21.075,25.599L453.547,283.748z"/>
		</g>
		<g>
			<path style="fill:#A4C092;" d="M309.359,282.603c-3.524,2.682-7.362,4.739-11.54,5.926l11.483-46.625L309.359,282.603z"/>
		</g>
		<g>
			<path style="fill:#A4C092;" d="M307.991,188.982l-12.971,39.312l-4.934-5.347C290.086,222.948,299.79,203.493,307.991,188.982z"
				/>
		</g>
		<g>
			<path style="fill:#F43745;" d="M342.54,216.715h41.289c0,0-0.779,40.25-22.592,40.25
				C339.424,256.965,342.54,216.715,342.54,216.715z"/>
		</g>
		<g>
			<path d="M274.053,286.014l-1.623-1.169c0.092-0.128,2.299-3.172,5.763-6.165c4.673-4.038,9.401-6.003,13.677-5.686
				c5.494,0.41,10.247,4.44,14.127,11.978l-1.778,0.915c-3.539-6.878-7.744-10.544-12.497-10.899
				C282.594,274.313,274.138,285.897,274.053,286.014z"/>
		</g>
		<g>
			<rect x="342.506" y="225.517" width="40.409" height="2"/>
		</g>
		<g>
			<path d="M336.308,203.693c-1.697,0-3.077-1.38-3.077-3.077s1.381-3.077,3.077-3.077c1.697,0,3.077,1.381,3.077,3.077
				S338.005,203.693,336.308,203.693z M336.308,199.538c-0.594,0-1.077,0.483-1.077,1.077s0.483,1.077,1.077,1.077
				c0.594,0,1.077-0.483,1.077-1.077S336.902,199.538,336.308,199.538z"/>
		</g>
		<g>
			<path d="M393.437,203.693c-1.697,0-3.077-1.38-3.077-3.077s1.381-3.077,3.077-3.077c1.697,0,3.077,1.381,3.077,3.077
				S395.134,203.693,393.437,203.693z M393.437,199.538c-0.594,0-1.077,0.483-1.077,1.077s0.483,1.077,1.077,1.077
				c0.594,0,1.077-0.483,1.077-1.077S394.031,199.538,393.437,199.538z"/>
		</g>
		<g>
			<g>
				<polygon style="fill:#E4EFF1;" points="246.792,174.729 263.473,183.758 244.11,226.286 221.773,214.196 				"/>
			</g>
			<g>
				<path style="fill:#701D2E;" d="M245.378,173.964c2.874-5.309,9.507-7.283,14.816-4.41c5.309,2.874,7.283,9.507,4.41,14.817"/>
			</g>
		</g>
		<g>
			<path style="fill:#FFB78F;" d="M256.848,198.008c0,0-3.116-10.116,1.818-12.194c4.934-2.077,5.442,14.025,5.442,14.025L252,209"
				/>
		</g>
		<g>
			<g>
				<path style="fill:#FFB78F;" d="M247.445,199.157c0,0,1.613,1.059,0.298,3.121c-1.285,2.023-17.75,3.872-20.467,1.76
					c-3.816-2.966,2.626-20.078,8.928-21.625c5.008-1.23,17.525,6.797,17.847,9.661c0.295,2.619-2.567,2.702-2.567,2.702
					s1.371,1.484,0.298,3.121C250.709,199.539,247.445,199.157,247.445,199.157z"/>
			</g>
			<g>
				<path d="M250.969,195.636c-0.051-0.031-5.218-3.086-12.373-4.663l0.431-1.953c7.488,1.651,12.749,4.768,12.969,4.9
					L250.969,195.636z"/>
			</g>
			<g>
				<path d="M247.088,200.092c-0.053-0.02-5.368-2.042-10.392-3.056l0.396-1.96c5.191,1.047,10.488,3.063,10.711,3.148
					L247.088,200.092z"/>
			</g>
		</g>
	</g>
	<g>
		<g>
			<g>
				<path style="fill:#C8956E;" d="M388.373,333.699c0,29.042-22.38,52.584-49.988,52.584c-27.607,0-49.988-23.543-49.988-52.584"/>
			</g>
			<g>
				<path style="fill:#B37D62;" d="M388.373,333.699c0,2.358-2.682,4.56-7.333,6.432c-3.171,1.278-7.255,2.402-12.031,3.316
					c-1.08,0.208-2.199,0.405-3.35,0.59c-2.007,0.322-4.113,0.61-6.305,0.859c-3.921,0.449-8.12,0.776-12.511,0.961
					c-0.652,0.029-1.309,0.052-1.968,0.073c-0.28,0.008-0.564,0.018-0.846,0.023c-1.852,0.052-3.734,0.081-5.643,0.081
					c-15.113,0-28.663-1.657-37.829-4.272c-7.575-2.163-12.158-4.981-12.158-8.063c0-3.89,7.299-7.359,18.704-9.621
					c2.916-0.579,6.097-1.078,9.496-1.483c6.585-0.789,13.976-1.231,21.787-1.231C365.992,321.365,388.373,326.888,388.373,333.699z
					"/>
			</g>
			<g>
				<path style="fill:#BFD6B0;" d="M344.875,345.93c-2.124,0.067-4.29,0.104-6.489,0.104c-13.913,0-26.503-1.405-35.565-3.667
					c-0.782-0.197-1.537-0.397-2.264-0.605c-0.886-0.639-1.719-1.353-2.48-2.137c-0.911-0.94-1.748-2.013-2.083-3.277
					c-0.335-1.265-0.073-2.755,0.922-3.604c2.262-1.929,6.001,0.61,8.642-0.753c0.657-0.338,1.148-0.875,1.491-1.514
					c0.517-0.969,0.704-2.171,0.623-3.282c-0.075-1.054-0.33-2.083-0.569-3.116c-0.182-0.774-0.353-1.55-0.434-2.34
					c-0.19-1.844,0.265-3.95,1.825-4.947c0.239-0.153,0.491-0.27,0.751-0.353c1.794-0.582,3.965,0.41,5.209,1.935
					c1.002,1.234,1.589,2.721,2.145,4.222c0.228,0.623,0.454,1.252,0.704,1.865c0.846,2.085,2.166,4.207,4.298,4.929
					c1.976,0.673,4.147-0.031,6.03-0.932c1.885-0.898,3.737-2.018,5.814-2.223c2.077-0.205,4.485,0.883,4.903,2.929
					c0.395,1.922-1.039,3.68-2.277,5.199c-1.239,1.522-2.425,3.581-1.54,5.331c0.657,1.298,2.22,1.852,3.664,2.054
					c1.158,0.164,2.368,0.192,3.467,0.545c0.273,0.088,0.538,0.195,0.792,0.327C343.714,343.276,344.545,344.533,344.875,345.93z"/>
			</g>
			<g>
				<path style="fill:#F43745;" d="M381.04,340.132c-3.171,1.278-7.255,2.402-12.031,3.316c-1.08,0.208-2.199,0.405-3.35,0.59
					c-2.007,0.322-4.113,0.61-6.305,0.859c-0.044-0.395-0.065-0.795-0.065-1.2c0-3.339,1.467-6.339,3.791-8.385
					c0.031-0.029,0.062-0.055,0.094-0.083c1.955-1.68,4.498-2.698,7.281-2.698C375.376,332.531,379.552,335.712,381.04,340.132z"/>
			</g>
			<g>
				<path style="fill:#ED1832;" d="M369.009,343.448c-1.08,0.208-2.199,0.405-3.35,0.59c-2.007,0.322-4.113,0.61-6.305,0.859
					c-3.921,0.449-8.12,0.776-12.511,0.961c-0.013-0.2-0.018-0.4-0.018-0.602c0-6.167,4.999-11.166,11.166-11.166
					c1.833,0,3.563,0.441,5.09,1.223c0.096,0.052,0.195,0.104,0.291,0.156C366.316,337.091,368.451,340.004,369.009,343.448z"/>
			</g>
			<g>
				<path style="fill:#FF5158;" d="M365.781,342.398c0,0.556-0.042,1.104-0.122,1.639c-2.007,0.322-4.113,0.61-6.305,0.859
					c-3.921,0.449-8.12,0.776-12.511,0.961c-0.652,0.029-1.309,0.052-1.968,0.073c-0.28,0.008-0.564,0.018-0.846,0.023
					c-0.376-1.117-0.579-2.311-0.579-3.555c0-6.167,4.999-11.166,11.166-11.166c3.438,0,6.513,1.553,8.559,3.996
					c0.07,0.078,0.135,0.158,0.197,0.239C364.88,337.371,365.781,339.778,365.781,342.398z"/>
			</g>
			<g>
				<path style="fill:#A4C092;" d="M341.66,342.292c-2.615,0.678-5.31,0.911-7.575-0.413c-2.171-1.267-3.438-3.929-3.049-6.417
					c0.208-1.33,0.782-2.882-0.122-3.882c-0.724-0.797-2.031-0.712-2.997-0.239c-0.969,0.473-1.761,1.249-2.727,1.724
					c-2.732,1.345-6.149-0.088-8.133-2.397c-1.984-2.311-2.927-5.305-4.061-8.13c-0.896-2.228-2.023-4.492-3.752-6.1
					c1.794-0.582,3.965,0.41,5.209,1.935c1.002,1.234,1.589,2.721,2.145,4.222c0.228,0.623,0.454,1.252,0.704,1.865
					c0.846,2.085,2.166,4.207,4.298,4.929c1.976,0.673,4.147-0.031,6.03-0.932c1.885-0.898,3.737-2.018,5.814-2.223
					c2.077-0.205,4.485,0.883,4.903,2.929c0.395,1.922-1.039,3.68-2.277,5.199c-1.239,1.522-2.425,3.581-1.54,5.331
					c0.657,1.298,2.22,1.852,3.664,2.054C339.352,341.91,340.562,341.939,341.66,342.292z"/>
			</g>
			<g>
				<path style="fill:#A4C092;" d="M307.048,330.477c0.018,0.566-0.073,1.132-0.273,1.662c-0.514,1.355-1.742,2.415-3.16,2.721
					c-0.662,0.143-1.353,0.133-2.018,0.27c-0.665,0.135-1.345,0.467-1.649,1.075c-0.397,0.792-0.031,1.742,0.387,2.524
					c0.691,1.298,1.527,2.521,2.485,3.638c-0.782-0.197-1.537-0.397-2.264-0.605c-0.886-0.639-1.719-1.353-2.48-2.137
					c-0.911-0.94-1.748-2.013-2.083-3.277c-0.335-1.265-0.073-2.755,0.922-3.604c2.262-1.929,6.001,0.61,8.642-0.753
					C306.215,331.653,306.705,331.116,307.048,330.477z"/>
			</g>
		</g>
		<g>
			<g>
				<path style="fill:#701D2E;" d="M239.505,354.828l27.485,19.823l4.709-6.529l-27.485-19.823c-1.803-1.3-4.319-0.893-5.619,0.91
					l0,0C237.294,351.012,237.702,353.528,239.505,354.828z"/>
			</g>
			<g>
				<path style="fill:#C4D1D6;" d="M263.452,377.543c6.529,4.709,38.023,27.423,38.023,27.423s9.85,4.543,15.926-3.882
					l-50.87-36.689"/>
			</g>
		</g>
		<g>
			<g>
				<path style="fill:#E4EFF1;" d="M203.744,289.059L203.744,289.059c7.529,0,13.633,6.104,13.633,13.633v61.673h-27.266v-61.673
					C190.111,295.162,196.215,289.059,203.744,289.059z"/>
			</g>
			<g>
				<rect x="190.111" y="318.402" style="fill:#FFFFFF;" width="27.266" height="16.619"/>
			</g>
			<g>
				<rect x="198.421" y="281.268" style="fill:#E4EFF1;" width="10.387" height="12.464"/>
			</g>
			<g>
				<rect x="196.603" y="277.892" style="fill:#701D2E;" width="14.282" height="6.232"/>
			</g>
		</g>
		<g>
			<g>
				<g>
					<path style="fill:#C4D1D6;" d="M558.277,352.785h-21.18c-2.13,0-4.044-1.301-4.829-3.281l-5.488-13.857H416.678l-20.774,52.454
						h151.651l-3.973-10.033c-1.35-3.409,1.162-7.106,4.829-7.106h10.051c2.509,0,4.783-1.018,6.427-2.662
						c1.693-1.693,2.722-4.056,2.659-6.654C567.426,356.687,563.239,352.785,558.277,352.785z M555.475,363.692
						c-2.366,0-4.285-0.872-4.285-1.948c0-1.075,1.919-1.948,4.285-1.948c2.366,0,4.285,0.872,4.285,1.948
						C559.759,362.819,557.84,363.692,555.475,363.692z"/>
				</g>
				<g>
					<path style="fill:#E4EFF1;" d="M558.277,347.592h-21.18c-2.13,0-4.044-1.301-4.829-3.281l-5.488-13.857H416.678l-20.774,52.454
						h151.651l-3.973-10.033c-1.35-3.409,1.162-7.106,4.829-7.106h10.051c2.509,0,4.783-1.018,6.427-2.662
						c1.693-1.693,2.722-4.056,2.659-6.654C567.426,351.493,563.239,347.592,558.277,347.592z M555.475,358.498
						c-2.366,0-4.285-0.873-4.285-1.948c0-1.075,1.919-1.948,4.285-1.948c2.366,0,4.285,0.872,4.285,1.948
						C559.759,357.626,557.84,358.498,555.475,358.498z"/>
				</g>
				<g>
					<rect x="395.904" y="382.908" style="fill:#C4D1D6;" width="151.651" height="5.194"/>
				</g>
			</g>
			<g>
				<g>
					<circle style="fill:#FF5158;" cx="452.513" cy="347.592" r="15.061"/>
				</g>
				<g>
					<path style="fill:#A4C092;" d="M454.495,335.745c-0.987,0.785-2.014,1.553-3.194,1.999c-1.18,0.446-2.528,0.552-3.656-0.012
						c-0.778,1.755-1.17,3.587-1.027,5.502c-1.416-1.738-2.084-4.132-1.835-6.36c-1.581-0.772-3.45-1.649-5.162-1.245
						c0.933-1.145,2.912-1.897,4.27-1.317c-0.345-1.893-0.982-3.793-2.329-5.168c2.071,1.055,4.013,2.889,4.899,5.038
						c0.405-2.5,2.419-4.663,4.884-5.246c-1.366,1.441-2.382,3.53-2.554,5.508C450.395,335.499,452.607,336.095,454.495,335.745z"/>
				</g>
			</g>
			<g>
				<g>
					<path style="fill:#F43745;" d="M494.581,369.405c0,3.155-6.394,5.713-14.282,5.713c-7.888,0-14.282-2.558-14.282-5.713v-2.597
						h28.564V369.405z"/>
				</g>
				<g>
					<path style="fill:#FF5158;" d="M494.581,366.808c0,3.155-6.394,5.713-14.282,5.713c-7.888,0-14.282-2.558-14.282-5.713
						c0-3.155,6.394-5.713,14.282-5.713C488.186,361.095,494.581,363.653,494.581,366.808z"/>
				</g>
				<g>
					<path style="fill:#FF7882;" d="M491.724,366.808c0,2.151-5.115,3.895-11.426,3.895c-6.31,0-11.426-1.744-11.426-3.895
						c0-2.151,5.116-3.895,11.426-3.895C486.609,362.913,491.724,364.657,491.724,366.808z"/>
				</g>
				<g>
					<path style="fill:#FF5158;" d="M481.684,364.532c0.433-0.492,1.087-0.782,1.742-0.772c0.784,0.012,1.505,0.424,2.129,0.898
						c0.369,0.28,0.753,0.672,0.684,1.13c-0.044,0.294-0.277,0.533-0.544,0.663c-0.267,0.131-0.568,0.172-0.863,0.212
						c-0.766,0.103-1.533,0.206-2.299,0.309c-0.266,0.036-0.541,0.071-0.8,0.003C480.638,366.686,481.184,365.101,481.684,364.532z"
						/>
				</g>
				<g>
					<path style="fill:#FF5158;" d="M477.73,364.186c-0.503-0.16-1.058-0.09-1.547,0.107c-0.489,0.198-0.92,0.515-1.324,0.854
						c-0.329,0.276-0.674,0.657-0.579,1.076c0.091,0.403,0.537,0.604,0.934,0.716c0.727,0.204,1.48,0.308,2.235,0.313
						c0.53,0.003,1.435,0.086,1.792-0.409C479.91,365.914,478.554,364.449,477.73,364.186z"/>
				</g>
				<g>
					<path style="fill:#FF5158;" d="M478.039,368.806c-0.168,0.184-0.338,0.413-0.292,0.657c0.038,0.201,0.219,0.351,0.414,0.413
						c0.195,0.062,0.405,0.051,0.609,0.04c0.966-0.053,1.932-0.105,2.898-0.158c0.257-0.014,0.521-0.029,0.759-0.129
						c0.238-0.1,0.449-0.302,0.486-0.558c0.056-0.385-0.282-0.707-0.608-0.918c-0.573-0.37-1.631-0.955-2.345-0.817
						C479.274,367.468,478.49,368.314,478.039,368.806z"/>
				</g>
			</g>
			<g>
				<g>
					<path style="fill:#F43745;" d="M505.98,344.205c0.964,3.004-4.343,7.393-11.854,9.803c-7.511,2.41-14.381,1.928-15.345-1.077
						l-0.793-2.473l27.199-8.727L505.98,344.205z"/>
				</g>
				<g>
					<path style="fill:#FF5158;" d="M505.187,341.733c0.964,3.004-4.343,7.393-11.854,9.803c-7.511,2.41-14.381,1.928-15.345-1.077
						c-0.964-3.004,4.343-7.393,11.854-9.803C497.353,338.246,504.223,338.728,505.187,341.733z"/>
				</g>
				<g>
					<path style="fill:#FF7882;" d="M502.467,342.605c0.657,2.048-3.681,5.272-9.69,7.2c-6.008,1.928-11.412,1.83-12.069-0.218
						c-0.657-2.048,3.681-5.272,9.69-7.2C496.406,340.459,501.81,340.557,502.467,342.605z"/>
				</g>
				<g>
					<path style="fill:#FF5158;" d="M492.211,343.506c0.262-0.601,0.796-1.077,1.423-1.268c0.75-0.228,1.563-0.056,2.302,0.205
						c0.437,0.154,0.922,0.409,0.996,0.867c0.048,0.294-0.101,0.592-0.315,0.798c-0.214,0.206-0.488,0.337-0.757,0.465
						c-0.698,0.332-1.397,0.665-2.095,0.997c-0.242,0.115-0.493,0.233-0.761,0.247C491.874,345.876,491.909,344.2,492.211,343.506z"
						/>
				</g>
				<g>
					<path style="fill:#FF5158;" d="M488.34,344.384c-0.527,0.001-1.035,0.237-1.44,0.575c-0.405,0.337-0.719,0.771-1,1.218
						c-0.229,0.363-0.441,0.831-0.223,1.201c0.209,0.356,0.696,0.411,1.108,0.396c0.754-0.028,1.504-0.159,2.224-0.385
						c0.506-0.159,1.393-0.356,1.581-0.936C490.944,345.364,489.205,344.382,488.34,344.384z"/>
				</g>
				<g>
					<path style="fill:#FF5158;" d="M490.046,348.688c-0.104,0.226-0.195,0.496-0.077,0.715c0.097,0.18,0.315,0.268,0.52,0.267
						c0.205-0.001,0.401-0.075,0.592-0.148c0.904-0.345,1.807-0.69,2.711-1.035c0.241-0.092,0.487-0.187,0.683-0.355
						c0.196-0.168,0.335-0.425,0.292-0.68c-0.065-0.383-0.484-0.587-0.859-0.689c-0.658-0.178-1.845-0.411-2.483-0.062
						C490.813,347.038,490.325,348.082,490.046,348.688z"/>
				</g>
			</g>
		</g>
	</g>
	<g>
		<path style="fill:#F9BF87;" d="M444.629,300.85c-25.781,18.613-70.149,23.111-70.149,23.111l-6.1-17.139l-2.127-5.973H444.629z"/>
	</g>
	<g>
		<g>
			<g>
				<path style="fill:#FFB78F;" d="M361.423,295.098c-5.548,1.957-9.311,0.895-9.907-2.112c-0.49-2.468,8.093-4.961,15.688-5.975
					c5.107-0.682,10.814-2.269,10.814-2.269l11.769,27.249c0,0-31.406,8.235-34.44,5.449c-1.818-1.669-0.521-3.117-0.521-3.117
					s-3.079,1.217-4.549-0.1s-0.521-3.117-0.521-3.117s-2.811,0.662-3.203-1.967C346.125,306.267,353.634,300.373,361.423,295.098z"
					/>
			</g>
			<g>
				<path d="M350.474,311.804l-1.435-1.394c0.18-0.186,4.492-4.587,11.355-8.14l0.919,1.776
					C354.755,307.442,350.516,311.761,350.474,311.804z"/>
			</g>
			<g>
				<path d="M355.412,315.134l-1.172-1.621c0.195-0.141,4.829-3.48,9.612-5.848l0.887,1.793
					C360.109,311.75,355.458,315.101,355.412,315.134z"/>
			</g>
		</g>
		<g>
			<path style="fill:#BFD6B0;" d="M458.356,271.247c-0.722,4.594-2.41,8.748-4.809,12.501c-4.49,7.027-11.472,12.646-19.268,17.102
				c-0.231,0.132-0.462,0.262-0.696,0.392c-3.789,2.122-7.754,3.973-11.709,5.58c-17.84,7.261-35.448,9.608-35.448,9.608
				l-3.96-9.608l-2.462-5.973l-7.601-18.437l36.874-29.084l-4.934-29.343"/>
		</g>
		<g>
			<path d="M447.979,290.584c-0.115-0.137-2.833-3.419-5.109-7.867c-3.132-6.118-3.844-11.246-2.117-15.241
				c2.21-5.114,8.333-8.009,18.199-8.604l0.121,1.997c-9.051,0.546-14.597,3.036-16.484,7.401
				c-3.579,8.282,6.822,20.908,6.928,21.035L447.979,290.584z"/>
		</g>
	</g>
	<g>
		<g>
			<g>
				<g>
					<g>
						<path style="fill:#FFD3A3;" d="M518.146,189.449c0,2.438,1.976,4.415,4.414,4.415s4.414-1.977,4.414-4.415
							c0-2.438-1.976-4.414-4.414-4.414S518.146,187.011,518.146,189.449z"/>
					</g>
					<g>
						<circle style="fill:#FFD3A3;" cx="484.648" cy="189.449" r="4.415"/>
					</g>
				</g>
				<g>
					<g>
						<path style="fill:#FFF0E1;" d="M522.561,189.449l26.487,84.395c0,0-12.984,14.023-33.498,10.387L522.561,189.449z"/>
					</g>
					<g>
						<path style="fill:#FFE6CD;" d="M522.561,189.449l-22.072,61.284c3.302,0.635,5.581,3.487,7.798,6.015
							c2.217,2.528,4.361,5.285,7.372,6.781c4.589,2.279,10.713,0.806,13.763-3.311"/>
					</g>
				</g>
				<g>
					<g>
						<path style="fill:#FFF0E1;" d="M484.514,253.349l16.983-20.279c5.655-6.753,5.655-16.588,0-23.341l-16.983-20.279
							l-16.983,20.279c-5.655,6.753-5.655,16.588,0,23.341L484.514,253.349z"/>
					</g>
					<g style="opacity:0.3;">
						<g>
							<polygon style="fill:#FF5158;" points="478.978,203.7 500.454,229.345 503.812,225.335 482.336,199.69 							"/>
						</g>
						<g>
							<polygon style="fill:#FF5158;" points="472.097,210.582 493.573,236.227 496.931,232.217 475.454,206.572 							"/>
						</g>
						<g>
							<polygon style="fill:#FF5158;" points="465.215,217.463 486.691,243.108 490.049,239.098 468.573,213.453 							"/>
						</g>
					</g>
					<g style="opacity:0.3;">
						<g>
							<polygon style="fill:#FF5158;" points="490.049,203.7 468.573,229.345 465.215,225.335 486.692,199.69 							"/>
						</g>
						<g>
							<polygon style="fill:#FF5158;" points="496.931,210.582 475.454,236.227 472.097,232.217 493.573,206.572 							"/>
						</g>
						<g>
							<polygon style="fill:#FF5158;" points="503.812,217.463 482.336,243.108 478.978,239.098 500.454,213.453 							"/>
						</g>
					</g>
				</g>
			</g>
			<g>
				<g>
					<rect x="450.111" y="162.313" style="fill:#FFD3A3;" width="98.937" height="10.387"/>
				</g>
				<g>
					<g>
						<g>
							<path style="fill:#C4D1D6;" d="M530.87,108.813L530.87,108.813c5.336,0,9.662,4.326,9.662,9.662v43.838h-19.324v-43.838
								C521.209,113.139,525.534,108.813,530.87,108.813z"/>
						</g>
						<g>
							<rect x="521.209" y="129.609" style="fill:#FFFFFF;" width="19.324" height="11.778"/>
						</g>
						<g>
							<rect x="527.098" y="103.293" style="fill:#C4D1D6;" width="7.361" height="8.834"/>
						</g>
						<g>
							<rect x="525.809" y="100.9" style="fill:#701D2E;" width="10.122" height="4.417"/>
						</g>
					</g>
					<g>
						<g>
							<polygon style="fill:#E4EFF1;" points="497.998,134.757 509.211,134.757 511.111,162.313 496.098,162.313 							"/>
						</g>
						<g>
							<path style="fill:#701D2E;" d="M497.048,134.757c0-3.569,2.893-6.461,6.461-6.461c3.569,0,6.461,2.893,6.461,6.461"/>
						</g>
					</g>
					<g>
						<g>
							<polygon style="fill:#E4EFF1;" points="470.732,124.37 481.945,124.37 483.845,162.313 468.832,162.313 							"/>
						</g>
						<g>
							<path style="fill:#701D2E;" d="M469.782,124.37c0-3.569,2.893-6.462,6.461-6.462c3.569,0,6.461,2.893,6.461,6.462"/>
						</g>
					</g>
				</g>
			</g>
		</g>
		<g>
			<g>
				<rect x="200.952" y="131.931" style="fill:#FFD3A3;" width="98.937" height="10.387"/>
			</g>
			<g>
				<g>
					<g>
						<path style="fill:#C4D1D6;" d="M225.232,92.679L225.232,92.679c3.912,0,7.083,3.171,7.083,7.083v32.17h-14.165v-32.17
							C218.149,95.85,221.32,92.679,225.232,92.679z"/>
					</g>
					<g>
						<rect x="218.149" y="107.923" style="fill:#FFFFFF;" width="14.165" height="8.634"/>
					</g>
					<g>
						<rect x="222.466" y="88.631" style="fill:#C4D1D6;" width="5.396" height="6.476"/>
					</g>
					<g>
						<rect x="221.522" y="86.878" style="fill:#701D2E;" width="7.42" height="3.238"/>
					</g>
				</g>
				<g>
					<g>
						<polygon style="fill:#E4EFF1;" points="273.379,104.505 284.591,104.505 286.492,132.061 271.478,132.061 						"/>
					</g>
					<g>
						<path style="fill:#701D2E;" d="M272.428,104.505c0-3.569,2.893-6.461,6.461-6.461c3.569,0,6.461,2.893,6.461,6.461"/>
					</g>
				</g>
				<g>
					<g>
						<path style="fill:#C4D1D6;" d="M262.841,120.635c0,1.496-0.288,2.921-0.81,4.23c-1.68,4.217-5.801,7.196-10.616,7.196
							c-6.31,0-11.426-5.116-11.426-11.426c0-6.31,5.116-11.426,11.426-11.426c4.75,0,8.824,2.898,10.545,7.024
							C262.529,117.589,262.841,119.075,262.841,120.635z"/>
					</g>
					<g>
						<rect x="248.717" y="105.251" style="fill:#C4D1D6;" width="5.396" height="6.476"/>
					</g>
					<g>
						<rect x="247.705" y="103.497" style="fill:#701D2E;" width="7.42" height="3.238"/>
					</g>
					<g>
						<path style="fill:#FFFFFF;" d="M262.841,120.635c0,1.496-0.288,2.921-0.81,4.23h-8.824v-8.632h8.754
							C262.529,117.589,262.841,119.075,262.841,120.635z"/>
					</g>
				</g>
			</g>
		</g>
	</g>
</g>
<g id="DESIGNED_BY_FREEPIK">
	<g>
		<g id="XMLID_29_">
			<g id="XMLID_48_">
				<g id="XMLID_56_">
					<path style="fill:#102129;" d="M385.104,465.465c-0.432,0.443-0.803,0.931-1.108,1.453l-0.465-0.241
						c-0.067-0.298-0.349-0.503-0.659-0.466c-0.331,0.039-0.568,0.339-0.529,0.67c0.039,0.331,0.339,0.568,0.67,0.529
						c0.065-0.008,0.127-0.026,0.184-0.052l0.451,0.234c-0.251,0.554-0.433,1.139-0.539,1.744l0.747,0.132
						c0.23-1.306,0.85-2.507,1.792-3.473L385.104,465.465z"/>
				</g>
				<g id="XMLID_55_">
					<path style="fill:#102129;" d="M390.592,463.163c-0.171,0-0.341,0.006-0.51,0.017l-0.074-0.626
						c0.188-0.149,0.296-0.389,0.266-0.645c-0.046-0.393-0.402-0.674-0.795-0.628c-0.393,0.046-0.674,0.402-0.628,0.795
						c0.03,0.254,0.189,0.461,0.404,0.564l0.074,0.624c-0.714,0.116-1.403,0.332-2.06,0.646l0.327,0.684
						c0.934-0.447,1.942-0.673,2.995-0.673c0.496,0,0.993,0.053,1.475,0.158l0.161-0.741
						C391.692,463.222,391.142,463.163,390.592,463.163z"/>
				</g>
				<g id="XMLID_54_">
					<path style="fill:#102129;" d="M397.194,465.711c0.331-0.04,0.566-0.341,0.525-0.672c-0.04-0.331-0.341-0.566-0.672-0.526
						c-0.309,0.038-0.535,0.304-0.53,0.609l-0.416,0.363c-0.418-0.43-0.889-0.813-1.408-1.139l-0.404,0.641
						c1.134,0.715,2.021,1.726,2.563,2.925l0.691-0.313c-0.251-0.554-0.568-1.072-0.942-1.545l0.402-0.351
						C397.065,465.716,397.129,465.719,397.194,465.711z"/>
				</g>
				<g id="XMLID_53_">
					<path style="fill:#102129;" d="M390.044,473.372c-0.386,0.023-0.775,0.035-1.157,0.035c-0.88,0-1.733-0.061-2.478-0.179
						c-0.39-0.062-0.846-0.155-1.27-0.292c1.046,1.861,3.069,3.125,5.388,3.125c2.855,0,5.262-1.916,5.95-4.504
						c-0.682,0.449-1.505,0.825-2.459,1.123C392.839,473.047,391.463,473.286,390.044,473.372z"/>
				</g>
				<g id="XMLID_49_">
					<path style="fill:#102129;" d="M390.592,464.68c-3.352,0-6.08,2.666-6.08,5.943c0,0.426,0.046,0.849,0.137,1.261
						c0.674,0.483,2.706,0.89,5.348,0.731c2.879-0.173,5.297-0.957,6.672-2.159c-0.005-0.195-0.021-0.39-0.045-0.582
						C396.244,466.913,393.65,464.68,390.592,464.68z M388.432,471.194c-1.02,0-1.85-0.83-1.85-1.85c0-1.02,0.83-1.85,1.85-1.85
						c1.02,0,1.85,0.83,1.85,1.85C390.282,470.365,389.452,471.194,388.432,471.194z M393.17,470.286c-0.75,0-1.36-0.61-1.36-1.36
						s0.61-1.361,1.36-1.361c0.75,0,1.361,0.61,1.361,1.361S393.92,470.286,393.17,470.286z"/>
				</g>
			</g>
			<g id="XMLID_46_">
				<path style="fill:#102129;" d="M406.595,466.547c-0.295-0.116-0.806-0.309-1.382-0.237c-0.551,0.069-0.844,0.341-0.844,1.007
					v0.866h2.228v1.717h-2.228v5.455h-1.932v-5.455h-1.34v-1.717h1.34v-0.888c0-1.68,0.896-2.783,2.568-2.783
					c0.642,0,1.157,0.122,1.59,0.308L406.595,466.547z"/>
			</g>
			<g id="XMLID_44_">
				<path style="fill:#102129;" d="M411.298,469.879c-0.177-0.03-0.358-0.046-0.526-0.046c-0.896,0-1.51,0.548-1.51,1.614v3.908
					h-1.932v-7.172h1.873v0.785c0.451-0.673,1.14-0.977,2.021-0.977c0.414,0,0.848,0.128,1.094,0.337L411.298,469.879z"/>
			</g>
			<g id="XMLID_41_">
				<path style="fill:#102129;" d="M418.965,471.757c0,0.222-0.015,0.489-0.037,0.651h-5.085c0.207,1.036,0.933,1.488,1.843,1.488
					c0.622,0,1.295-0.252,1.813-0.688l1.132,1.243c-0.814,0.748-1.85,1.088-3.057,1.088c-2.198,0-3.723-1.495-3.723-3.753
					c0-2.258,1.48-3.797,3.627-3.797C417.544,467.99,418.958,469.522,418.965,471.757z M413.851,471.091h3.175
					c-0.177-0.918-0.733-1.436-1.562-1.436C414.554,469.655,414.021,470.203,413.851,471.091z"/>
			</g>
			<g id="XMLID_38_">
				<path style="fill:#102129;" d="M426.618,471.757c0,0.222-0.015,0.489-0.037,0.651h-5.085c0.207,1.036,0.932,1.488,1.843,1.488
					c0.622,0,1.295-0.252,1.814-0.688l1.132,1.243c-0.814,0.748-1.85,1.088-3.057,1.088c-2.198,0-3.723-1.495-3.723-3.753
					c0-2.258,1.48-3.797,3.627-3.797C425.197,467.99,426.611,469.522,426.618,471.757z M421.504,471.091h3.175
					c-0.178-0.918-0.733-1.436-1.562-1.436C422.207,469.655,421.674,470.203,421.504,471.091z"/>
			</g>
			<g id="XMLID_35_">
				<path style="fill:#102129;" d="M434.964,471.764c0,2.154-1.495,3.775-3.471,3.775c-0.962,0-1.643-0.378-2.109-0.933v3.708
					h-1.924v-10.133h1.887v0.792c0.466-0.585,1.155-0.984,2.139-0.984C433.469,467.99,434.964,469.61,434.964,471.764z
					 M429.287,471.764c0,1.132,0.747,1.976,1.843,1.976c1.14,0,1.85-0.881,1.85-1.976c0-1.095-0.71-1.976-1.85-1.976
					C430.035,469.788,429.287,470.632,429.287,471.764z"/>
			</g>
			<g id="XMLID_32_">
				<path style="fill:#102129;" d="M438.068,465.836c0,0.696-0.54,1.229-1.236,1.229c-0.696,0-1.229-0.533-1.229-1.229
					c0-0.696,0.533-1.243,1.229-1.243C437.527,464.592,438.068,465.14,438.068,465.836z M437.809,475.354h-1.932v-7.172h1.932
					V475.354z"/>
			</g>
			<g id="XMLID_30_">
				<path style="fill:#102129;" d="M441.032,470.736l2.702-2.554h2.368l-3.479,3.375l3.501,3.797h-2.376l-2.716-2.901v2.901H439.1
					v-10.658h1.932V470.736z"/>
			</g>
		</g>
		<g>
			<g>
				<path style="fill:#102129;" d="M309.412,475.289v-1.055c-0.527,0.718-1.391,1.23-2.388,1.23c-1.846,0-3.149-1.406-3.149-3.706
					c0-2.256,1.289-3.721,3.149-3.721c0.952,0,1.816,0.469,2.388,1.245v-3.765h1.099v9.77H309.412z M309.412,473.37v-3.208
					c-0.395-0.615-1.245-1.143-2.124-1.143c-1.421,0-2.27,1.172-2.27,2.739c0,1.567,0.85,2.724,2.27,2.724
					C308.168,474.483,309.017,473.986,309.412,473.37z"/>
			</g>
			<g>
				<path style="fill:#102129;" d="M311.932,471.744c0-2.051,1.465-3.706,3.486-3.706c2.139,0,3.398,1.67,3.398,3.794v0.279h-5.727
					c0.088,1.333,1.026,2.446,2.549,2.446c0.805,0,1.626-0.322,2.182-0.894l0.527,0.718c-0.703,0.703-1.655,1.084-2.812,1.084
					C313.44,475.465,311.932,473.956,311.932,471.744z M315.404,468.947c-1.509,0-2.256,1.274-2.315,2.358h4.644
					C317.718,470.25,317.015,468.947,315.404,468.947z"/>
			</g>
			<g>
				<path style="fill:#102129;" d="M319.607,474.351l0.571-0.791c0.469,0.542,1.362,1.011,2.329,1.011
					c1.084,0,1.67-0.513,1.67-1.216c0-1.714-4.38-0.659-4.38-3.281c0-1.098,0.952-2.036,2.636-2.036
					c1.201,0,2.051,0.454,2.622,1.026l-0.513,0.762c-0.424-0.513-1.201-0.894-2.109-0.894c-0.967,0-1.567,0.483-1.567,1.113
					c0,1.552,4.38,0.527,4.38,3.281c0,1.187-0.952,2.138-2.783,2.138C321.306,475.465,320.325,475.113,319.607,474.351z"/>
			</g>
			<g>
				<path style="fill:#102129;" d="M326.477,466.471c0-0.41,0.337-0.747,0.732-0.747c0.41,0,0.747,0.337,0.747,0.747
					c0,0.41-0.337,0.732-0.747,0.732C326.814,467.203,326.477,466.881,326.477,466.471z M326.667,475.289v-7.075h1.099v7.075
					H326.667z"/>
			</g>
			<g>
				<path style="fill:#102129;" d="M329.582,477.105l0.556-0.82c0.586,0.703,1.289,0.967,2.3,0.967c1.172,0,2.27-0.571,2.27-2.124
					v-1.011c-0.513,0.718-1.377,1.26-2.373,1.26c-1.845,0-3.149-1.377-3.149-3.662c0-2.27,1.289-3.677,3.149-3.677
					c0.952,0,1.802,0.469,2.373,1.245v-1.069h1.098v6.87c0,2.344-1.641,3.076-3.369,3.076
					C331.237,478.16,330.417,477.926,329.582,477.105z M334.709,473.253v-3.091c-0.381-0.615-1.23-1.143-2.109-1.143
					c-1.421,0-2.27,1.128-2.27,2.695c0,1.553,0.849,2.695,2.27,2.695C333.478,474.41,334.328,473.868,334.709,473.253z"/>
			</g>
			<g>
				<path style="fill:#102129;" d="M342.413,475.289v-4.629c0-1.245-0.63-1.641-1.582-1.641c-0.865,0-1.685,0.527-2.095,1.099v5.17
					h-1.099v-7.075h1.099v1.025c0.498-0.586,1.465-1.201,2.519-1.201c1.48,0,2.256,0.747,2.256,2.285v4.966H342.413z"/>
			</g>
			<g>
				<path style="fill:#102129;" d="M344.932,471.744c0-2.051,1.465-3.706,3.486-3.706c2.139,0,3.398,1.67,3.398,3.794v0.279h-5.727
					c0.088,1.333,1.025,2.446,2.549,2.446c0.806,0,1.626-0.322,2.183-0.894l0.527,0.718c-0.703,0.703-1.655,1.084-2.812,1.084
					C346.441,475.465,344.932,473.956,344.932,471.744z M348.404,468.947c-1.509,0-2.256,1.274-2.314,2.358h4.643
					C350.718,470.25,350.015,468.947,348.404,468.947z"/>
			</g>
			<g>
				<path style="fill:#102129;" d="M358.35,475.289v-1.055c-0.527,0.718-1.392,1.23-2.388,1.23c-1.845,0-3.149-1.406-3.149-3.706
					c0-2.256,1.289-3.721,3.149-3.721c0.952,0,1.817,0.469,2.388,1.245v-3.765h1.098v9.77H358.35z M358.35,473.37v-3.208
					c-0.396-0.615-1.245-1.143-2.124-1.143c-1.421,0-2.27,1.172-2.27,2.739c0,1.567,0.849,2.724,2.27,2.724
					C357.105,474.483,357.954,473.986,358.35,473.37z"/>
			</g>
			<g>
				<path style="fill:#102129;" d="M364.692,475.289v-9.77h1.099v3.765c0.572-0.776,1.421-1.245,2.388-1.245
					c1.845,0,3.149,1.465,3.149,3.721c0,2.299-1.304,3.706-3.149,3.706c-0.996,0-1.86-0.513-2.388-1.23v1.055H364.692z
					 M367.9,474.483c1.436,0,2.285-1.157,2.285-2.724c0-1.568-0.85-2.739-2.285-2.739c-0.864,0-1.728,0.527-2.109,1.143v3.208
					C366.172,473.986,367.036,474.483,367.9,474.483z"/>
			</g>
			<g>
				<path style="fill:#102129;" d="M372.529,477.061c0.161,0.073,0.425,0.117,0.601,0.117c0.483,0,0.805-0.161,1.055-0.747
					l0.469-1.069l-2.959-7.148h1.187l2.358,5.8l2.344-5.8h1.201l-3.545,8.51c-0.425,1.025-1.143,1.421-2.08,1.435
					c-0.234,0-0.601-0.044-0.805-0.103L372.529,477.061z"/>
			</g>
		</g>
	</g>
</g>
</svg>
